<?xml version="1.0" encoding="UTF-8" standalone="no"?>
<!-- Created with Inkscape (http://www.inkscape.org/) -->

<svg
   xmlns:dc="http://purl.org/dc/elements/1.1/"
   xmlns:cc="http://creativecommons.org/ns#"
   xmlns:rdf="http://www.w3.org/1999/02/22-rdf-syntax-ns#"
   xmlns:svg="http://www.w3.org/2000/svg"
   xmlns="http://www.w3.org/2000/svg"
   xmlns:sodipodi="http://sodipodi.sourceforge.net/DTD/sodipodi-0.dtd"
   xmlns:inkscape="http://www.inkscape.org/namespaces/inkscape"
   id="svg4136"
   version="1.1"
   inkscape:version="0.91 r13725"
   width="16"
   height="16"
   viewBox="0 0 16 16"
   sodipodi:docname="16.svg">
  <metadata
     id="metadata4142">
    <rdf:RDF>
      <cc:Work
         rdf:about="">
        <dc:format>image/svg+xml</dc:format>
        <dc:type
           rdf:resource="http://purl.org/dc/dcmitype/StillImage" />
        <dc:title></dc:title>
      </cc:Work>
    </rdf:RDF>
  </metadata>
  <defs
     id="defs4140" />
  <sodipodi:namedview
     pagecolor="#ffffff"
     bordercolor="#666666"
     borderopacity="1"
     objecttolerance="10"
     gridtolerance="10"
     guidetolerance="10"
     inkscape:pageopacity="0"
     inkscape:pageshadow="2"
     inkscape:window-width="1203"
     inkscape:window-height="871"
     id="namedview4138"
     showgrid="false"
     inkscape:zoom="1.85"
     inkscape:cx="39.619892"
     inkscape:cy="68.459004"
     inkscape:window-x="91"
     inkscape:window-y="51"
     inkscape:window-maximized="0"
     inkscape:current-layer="svg4136" />
  <g
     id="g4146"
     transform="matrix(0.14095238,0,0,0.14095238,-0.07216416,-0.0871428)">
    <path
       style="fill:#d0f5f9"
       d="M 39.767942,92.5875 C 39.913971,92.030625 45.774558,75.78 52.791466,56.475 l 12.758018,-35.1 5.079253,-0.127743 c 3.987037,-0.100274 5.032881,-0.0035 4.8636,0.45 C 75.373731,22.015016 74.551648,24.3 73.665481,26.775 72.779319,29.25 66.949276,45.298125 60.709833,62.4375 L 49.365391,93.6 l -4.931479,0 c -4.892796,0 -4.929397,-0.008 -4.66597,-1.0125 z M 13.192113,71.233623 C 8.0402009,65.600478 3.0801387,60.170918 2.1697527,59.167935 L 0.51450543,57.344332 11.394753,45.346221 22.275,33.348111 l 6.218798,-0.02406 c 5.855209,-0.02265 6.210391,0.02566 6.075,0.826223 -0.07909,0.467653 -4.743623,5.844402 -10.365632,11.948333 L 13.981332,57.196665 24.203166,68.462424 C 29.825175,74.658596 34.425,80.064972 34.425,80.476596 c 0,0.653693 -0.750829,0.764267 -5.932887,0.873761 L 22.559225,81.475708 13.192113,71.233623 Z M 80.325,81 c -0.152964,-0.2475 -0.125379,-0.703125 0.0613,-1.0125 0.186683,-0.309375 4.805505,-5.394838 10.264059,-11.30103 5.458554,-5.906191 9.974871,-10.867441 10.036271,-11.025 0.0614,-0.157559 -4.555896,-5.418977 -10.260641,-11.692044 -5.704749,-6.273066 -10.294636,-11.639316 -10.199745,-11.925 0.116208,-0.349877 2.154231,-0.560124 6.24362,-0.644107 l 6.071089,-0.124681 10.897497,11.955851 c 10.88818,11.945623 10.89681,11.95672 10.09202,12.972087 -0.44301,0.558931 -5.34282,6.01803 -10.88847,12.131329 L 92.559001,81.45 l -5.977944,0 C 83.081173,81.45 80.487828,81.263461 80.325,81 Z"
       id="path4176"
       inkscape:connector-curvature="0" />
    <path
       style="fill:#a2e5f1"
       d="M 39.6,93.344999 C 39.6,93.132742 54.020147,53.357661 63.285795,28.0125 l 2.508782,-6.8625 4.882747,0 4.882752,0 -0.694188,1.9125 c -0.381803,1.051875 -1.556874,4.362842 -2.611269,7.357704 -1.054395,2.994863 -6.656153,18.433421 -12.44835,34.307904 L 49.275,93.590806 l -4.8375,0.0046 C 41.776875,93.59793 39.6,93.48525 39.6,93.344999 Z M 11.542609,69.326977 C 5.689174,62.906814 0.9,57.525233 0.9,57.367908 0.9,57.210579 5.6882218,51.832192 11.540493,45.415931 L 22.180987,33.75 l 6.234506,0 c 3.927375,0 6.234507,0.169422 6.234507,0.457825 0,0.251803 -4.606875,5.442399 -10.2375,11.534657 -5.630625,6.092258 -10.2375,11.244195 -10.2375,11.448751 0,0.204553 4.515159,5.34974 10.033686,11.433744 5.518527,6.084009 10.147067,11.357298 10.285645,11.718428 C 34.707739,80.899537 33.78533,81 28.465754,81 L 22.185218,81 11.542609,69.326977 Z M 80.55,80.409478 c 0,-0.324783 4.55625,-5.535535 10.125,-11.579445 C 96.24375,62.786124 100.8,57.706002 100.8,57.54087 100.8,57.375742 96.24375,52.227405 90.675,46.100128 85.10625,39.97285 80.55,34.687457 80.55,34.354811 c 0,-0.477769 1.299699,-0.601872 6.1875,-0.590818 l 6.1875,0.014 10.52283,11.631284 c 5.78755,6.397205 10.5463,11.74415 10.575,11.882102 0.0287,0.137952 -4.70658,5.523507 -10.52283,11.967903 l -10.575,11.717082 -6.1875,0.01183 c -4.812588,0.0092 -6.1875,-0.119399 -6.1875,-0.5787 z"
       id="path4174"
       inkscape:connector-curvature="0" />
    <path
       style="fill:#5bedfd"
       d="M 39.807105,92.828273 C 39.98063,92.386471 44.978698,78.66 50.913922,62.325 56.849148,45.99 62.647362,30.043125 63.798844,26.8875 l 2.093603,-5.7375 4.628776,0 c 2.545826,0 4.62965,0.151875 4.630721,0.3375 0.0036,0.590812 -5.575797,16.174875 -15.908922,44.4375 l -10.036017,27.45 -4.857701,0.128273 c -4.508037,0.119043 -4.83499,0.07046 -4.542199,-0.675 z M 11.583573,69.252435 C 0.90223902,57.51882 0.89289319,57.506755 1.683573,56.473407 2.1188579,55.904531 6.93,50.560155 12.375,44.597023 l 9.9,-10.842059 6.1875,-0.0025 c 3.403125,-0.0013 6.1875,0.160425 6.1875,0.359534 0,0.199109 -4.652527,5.413484 -10.338948,11.5875 -5.686421,6.174018 -10.343921,11.343609 -10.35,11.487982 -0.0061,0.144378 4.545198,5.293494 10.113948,11.442483 5.56875,6.148994 10.125,11.447744 10.125,11.775002 0,0.463491 -1.318,0.594702 -5.9625,0.593586 L 22.275,80.997138 11.583573,69.252435 Z M 80.565795,80.4375 c 0.0087,-0.309375 4.655462,-5.591308 10.326168,-11.737634 L 101.20234,57.524733 90.988668,46.305455 C 85.371152,40.134849 80.709525,34.785534 80.629506,34.418086 80.50644,33.853008 81.424453,33.75 86.583528,33.75 l 6.099516,0 10.611636,11.674404 c 5.8364,6.420919 10.6496,11.76336 10.69598,11.872084 0.0464,0.108725 -4.73077,5.486495 -10.6159,11.950596 L 92.674512,81 86.612256,81 c -4.558225,0 -6.058336,-0.139554 -6.046461,-0.5625 z"
       id="path4172"
       inkscape:connector-curvature="0" />
    <path
       style="fill:#26effe"
       d="M 39.843844,92.828273 C 40.219281,91.972098 58.785363,41.163951 63.18949,28.940325 l 2.624639,-7.284676 4.663602,-0.140324 c 4.481442,-0.134844 4.653517,-0.105171 4.405437,0.759675 -0.721962,2.516877 -6.628599,19.001572 -15.640245,43.65 l -10.035918,27.45 -4.857701,0.128273 c -4.519513,0.119344 -4.833178,0.07235 -4.50546,-0.675 z M 11.563137,69.229993 0.85127404,57.462845 2.3720532,55.843924 C 3.2084818,54.953514 8.0916228,49.618125 13.223478,43.9875 l 9.330645,-10.2375 5.822939,0 c 4.598671,0 5.822938,0.128184 5.822938,0.609679 0,0.335324 -4.554636,5.549699 -10.121414,11.587499 C 18.511808,51.984981 14.006183,57.15171 14.066086,57.428802 14.125989,57.705889 18.63,62.84543 24.075,68.85 c 5.445,6.004571 9.965473,11.194736 10.045496,11.533698 0.117622,0.498231 -1.003124,0.616028 -5.85,0.614871 L 22.275,80.997138 11.563137,69.229993 Z M 80.55,80.351559 c 0,-0.356643 0.196065,-0.769617 0.435699,-0.917721 0.239634,-0.148104 4.020489,-4.159426 8.401901,-8.914059 4.381407,-4.754628 8.865931,-9.586426 9.965605,-10.737324 L 101.35261,57.689905 91.063805,46.388038 C 85.404965,40.172013 80.709525,34.785534 80.629506,34.418086 80.506521,33.853369 81.414657,33.75 86.498865,33.75 l 6.014857,0 10.683688,11.765849 c 5.87603,6.471216 10.62607,11.926115 10.55564,12.121996 -0.0704,0.195885 -4.84123,5.532503 -10.60178,11.859152 L 92.677545,81 86.613773,81 C 81.634131,81 80.55,80.884067 80.55,80.351559 Z"
       id="path4170"
       inkscape:connector-curvature="0" />
    <path
       style="fill:#21d3fe"
       d="M 39.844156,92.828273 C 40.129362,92.178446 52.996734,56.976503 63.289539,28.6875 l 2.087563,-5.7375 3.648947,-0.0028 c 2.224399,-0.0017 4.114152,-0.245496 4.840555,-0.624503 1.168218,-0.609528 1.184828,-0.598434 0.846216,0.565272 -0.705564,2.424807 -5.707588,16.341354 -15.46879,43.037003 l -10.037025,27.45 -4.857701,0.128273 c -4.519611,0.119349 -4.833163,0.07237 -4.505148,-0.675 z M 11.564538,69.231532 C 5.299434,62.349219 1.0204546,57.299544 1.2549413,57.065058 1.4754171,56.844585 2.2709281,56.317873 3.0227435,55.894599 3.7745589,55.47132 7.401253,51.78375 11.082064,47.7 c 3.680811,-4.08375 7.736577,-8.531336 9.012814,-9.883524 l 2.320431,-2.458523 4.879845,-0.262247 c 2.683915,-0.144236 5.335471,-0.51315 5.892346,-0.819809 2.505179,-1.379549 0.509937,1.255787 -7.82001,10.32875 -4.857881,5.291195 -9.41673,10.240174 -10.130774,10.997736 -1.047734,1.11158 -1.245601,1.640691 -1.025364,2.741876 0.341576,1.707881 15.719641,18.840952 18.119042,20.186856 0.900334,0.505031 1.704161,1.267133 1.786284,1.693562 0.135289,0.702495 -0.413842,0.775188 -5.846182,0.773892 L 22.275,80.997138 11.564538,69.231532 Z m 69.070993,10.98167 c 0.08334,-0.432738 0.857561,-1.119438 1.720494,-1.525995 1.967198,-0.92682 17.946215,-17.997453 18.158905,-19.399442 0.047,-0.309518 0.24057,-0.811133 0.43025,-1.114695 0.22432,-0.359005 -3.240604,-4.490428 -9.912655,-11.819412 -5.641641,-6.197117 -10.322132,-11.563634 -10.401098,-11.925594 -0.125604,-0.57573 0.05565,-0.574865 1.448046,0.0069 C 83.049705,34.840368 85.12888,35.1 87.405066,35.1 c 2.713599,0 4.123179,0.215199 5.158219,0.7875 0.783338,0.433125 5.285403,5.079384 10.004595,10.325021 4.71919,5.245636 9.13762,9.804613 9.81873,10.131061 0.68111,0.326452 1.23839,0.828558 1.23839,1.115798 0,0.287239 -4.71318,5.701387 -10.47373,12.031438 L 92.677545,81 86.580774,81 c -5.562144,0 -6.083478,-0.06899 -5.945243,-0.786798 z"
       id="path4168"
       inkscape:connector-curvature="0" />
    <path
       style="fill:#1ec5fe"
       d="m 39.6,93.360641 c 0,-0.491985 1.000543,-2.22224 1.813227,-3.135641 0.440418,-0.495 1.408304,-2.62125 2.150857,-4.725 0.742552,-2.10375 2.4626,-6.8625 3.822329,-10.575 1.359729,-3.7125 4.532521,-12.42 7.05065,-19.35 2.518127,-6.93 4.961439,-13.6125 5.429583,-14.85 0.468139,-1.2375 0.987655,-2.8575 1.154474,-3.6 0.166824,-0.7425 0.42449,-1.5525 0.572594,-1.8 0.148104,-0.2475 1.185061,-2.871302 2.304346,-5.830671 2.247219,-5.941605 2.270093,-5.963078 6.444023,-6.049473 1.191897,-0.02467 2.576115,-0.263763 3.076042,-0.531315 0.499928,-0.267552 1.012068,-0.383347 1.138095,-0.257321 0.293391,0.293391 -2.896731,9.307304 -15.313297,43.26878 l -10.035918,27.45 -4.803503,0.127724 C 41.761576,93.572973 39.6,93.509037 39.6,93.360641 Z M 11.587077,69.256282 C 5.7087184,62.798814 1.0125446,57.331958 1.1511342,57.107714 1.2897238,56.883469 1.9584148,56.7 2.6371143,56.7 3.6731401,56.7 5.3474008,55.076112 13.073057,46.578046 23.077234,35.573647 23.099266,35.557326 27.955923,35.55251 c 1.392008,-0.0014 3.366383,-0.297277 4.3875,-0.657548 C 33.36454,34.53469 34.2,34.407406 34.2,34.612108 c 0,0.294843 -12.49367,14.124683 -18.948734,20.975262 -0.706042,0.7493 -1.399521,1.9643 -1.541064,2.700001 -0.236657,1.23007 0.398075,2.061306 7.893855,10.337629 8.044031,8.881668 8.92054,9.696793 11.358443,10.563021 0.680625,0.241835 1.2375,0.748467 1.2375,1.125841 0,0.580401 -0.918858,0.685918 -5.9625,0.684707 L 22.275,80.997138 11.587077,69.256282 Z M 80.55,80.414311 c 0,-0.322128 0.971694,-0.996219 2.15932,-1.497978 1.774828,-0.749844 3.66161,-2.548116 10.596213,-10.099156 7.095267,-7.725978 8.395227,-9.352881 8.174877,-10.230831 C 101.3363,58.012164 96.618627,52.487752 90.996696,46.309873 85.374765,40.131994 80.706964,34.878351 80.623809,34.63511 c -0.08995,-0.263125 0.365715,-0.233738 1.125,0.07256 0.701905,0.283146 3.301191,0.666287 5.776191,0.851425 l 4.5,0.336615 4.302954,4.664647 c 2.366622,2.565556 6.637386,7.195897 9.490586,10.289647 3.80404,4.124749 5.53688,5.686186 6.49705,5.854419 0.72018,0.12618 1.30941,0.465174 1.30941,0.753318 0,0.288144 -4.71318,5.70303 -10.47373,12.033081 L 92.677545,81 86.613773,81 C 81.934709,81 80.55,80.866255 80.55,80.414311 Z"
       id="path4166"
       inkscape:connector-curvature="0" />
    <path
       style="fill:#5eacd0"
       d="m 39.6,93.360641 c 0,-0.789274 1.089381,-2.104921 2.043179,-2.467553 1.4073,-0.535055 1.863682,-1.580535 7.658047,-17.543088 2.650333,-7.30125 5.412636,-14.895 6.13845,-16.875 0.725814,-1.98 1.63251,-4.51125 2.014879,-5.625 0.382375,-1.11375 1.658764,-4.6575 2.836427,-7.875 1.177663,-3.2175 3.004749,-8.28 4.060192,-11.25 2.533573,-7.129447 2.73169,-7.425 4.977127,-7.425 0.994153,0 2.609486,-0.409116 3.589627,-0.909146 C 73.898068,22.890824 74.7,22.627027 74.7,22.80464 74.7,23.368282 69.583257,37.642381 59.242923,65.925 l -10.035918,27.45 -4.803503,0.127724 C 41.761576,93.572973 39.6,93.509037 39.6,93.360641 Z M 11.518945,69.186069 0.76289031,57.375 2.596604,57.238331 C 4.6223244,57.087347 3.8343088,57.85173 17.55,42.733354 23.395711,36.28981 23.18184,36.45 25.938918,36.45 c 1.324125,0 3.636673,-0.425381 5.138998,-0.945292 1.502325,-0.519911 2.822158,-0.854634 2.932963,-0.74383 0.110804,0.110805 -4.61069,5.425712 -10.492209,11.810904 -5.881518,6.385194 -10.755934,11.966256 -10.832035,12.402365 -0.119413,0.684328 1.049293,2.160382 5.313365,6.710683 0.37125,0.396167 2.959189,3.273075 5.750975,6.393119 4.018656,4.491175 5.535784,5.870619 7.283422,6.622434 1.214096,0.522288 2.423031,0.949617 2.686524,0.949617 0.263494,0 0.479079,0.30375 0.479079,0.675 0,0.566109 -0.961864,0.674771 -5.9625,0.673569 L 22.275,80.997138 11.518945,69.186069 Z M 80.55,80.41819 c 0,-0.319999 1.122638,-0.963409 2.494746,-1.429802 2.856128,-0.97083 4.50572,-2.565203 16.967754,-16.399796 2.46575,-2.737323 3.24648,-4.499901 2.025,-4.571618 -0.58699,-0.03447 -21.553249,-23.001223 -21.262837,-23.291637 0.09125,-0.09126 1.395094,0.25946 2.897419,0.779371 1.520937,0.526351 3.857787,0.945292 5.272835,0.945292 2.477655,0 2.598831,0.05952 4.835708,2.375123 1.261908,1.306318 3.914375,4.18192 5.894375,6.390229 4.4683,4.98353 8.17688,9.046314 9.75289,10.684386 0.88533,0.92021 1.6377,1.250262 2.84999,1.250262 0.90592,0 1.57962,0.1899 1.49712,0.421997 -0.0825,0.232101 -4.86318,5.598351 -10.62373,11.925 L 92.677545,81 86.613773,81 C 81.955413,81 80.55,80.865153 80.55,80.41819 Z"
       id="path4164"
       inkscape:connector-curvature="0" />
    <path
       style="fill:#1cb7fd"
       d="m 40.129091,92.607827 c 0.08384,-0.588623 0.677411,-1.278351 1.395332,-1.621382 1.590902,-0.760144 1.929437,-1.527885 7.776803,-17.636445 2.650334,-7.30125 5.412636,-14.895 6.13845,-16.875 0.725814,-1.98 1.63251,-4.51125 2.01488,-5.625 0.382374,-1.11375 1.658763,-4.6575 2.836426,-7.875 1.177663,-3.2175 3.004749,-8.28 4.060192,-11.25 2.533573,-7.129447 2.73169,-7.425 4.977127,-7.425 0.994153,0 2.63839,-0.423861 3.653856,-0.941913 1.723441,-0.879234 1.824849,-0.88672 1.523933,-0.1125 -0.1773,0.456177 -1.096019,3.056913 -2.041596,5.779413 -0.94558,2.7225 -6.372332,17.7075 -12.059451,33.3 -5.687118,15.5925 -10.534373,28.9575 -10.771677,29.7 l -0.43146,1.35 -4.609362,0.12861 c -4.570072,0.127516 -4.608119,0.11988 -4.463453,-0.895783 z M 11.565065,69.175431 0.85513014,57.375 2.642724,57.238331 C 4.6123506,57.087738 3.8880501,57.792492 17.55,42.733354 23.395711,36.28981 23.18184,36.45 25.938918,36.45 c 1.324125,0 3.636673,-0.425381 5.138998,-0.945292 1.502325,-0.519911 2.8127,-0.864092 2.911944,-0.764848 0.141029,0.141029 -11.368758,12.81483 -20.13647,22.172927 -1.9952,2.129548 -1.910868,2.307951 4.14661,8.772043 0.37125,0.396167 2.959189,3.273075 5.750975,6.393119 4.018656,4.491175 5.535784,5.870619 7.283422,6.622434 1.214096,0.522288 2.423031,0.949617 2.686524,0.949617 0.263494,0 0.479079,0.30375 0.479079,0.675 0,0.566644 -0.957135,0.67306 -5.9625,0.662931 L 22.275,80.975858 11.565065,69.175431 Z m 69.092562,11.276694 c 0.100444,-0.301334 1.180444,-0.959643 2.399998,-1.46291 1.219558,-0.503266 2.523528,-1.117345 2.897717,-1.36462 0.626075,-0.413735 7.843468,-8.13294 14.057158,-15.034531 2.466,-2.739002 3.24611,-4.500905 2.025,-4.573508 -0.48357,-0.02876 -3.593313,-3.39331 -18.729346,-20.264035 -1.329265,-1.481607 -2.32745,-2.783223 -2.218194,-2.89248 0.109255,-0.109256 1.34365,0.203788 2.743101,0.695656 1.39945,0.491866 3.693919,0.894303 5.098823,0.894303 2.493383,0 2.609146,0.0567 4.848741,2.375123 1.261908,1.306318 3.914375,4.18192 5.894375,6.390229 4.4683,4.98353 8.17688,9.046314 9.75289,10.684386 0.88218,0.916934 1.63882,1.250262 2.83801,1.250262 1.5569,0 1.60431,0.04401 0.99099,0.919643 -0.35428,0.505804 -5.14146,5.872054 -10.63819,11.925 L 92.624652,81 86.549828,81 c -4.573391,0 -6.02969,-0.135414 -5.892201,-0.547875 z"
       id="path4162"
       inkscape:connector-curvature="0" />
    <path
       style="fill:#19a6e8"
       d="m 40.05,92.750643 c 0,-1.014439 1.953022,-1.801962 5.569074,-2.24563 L 47.901254,90.225 49.532711,85.95 c 1.543306,-4.044002 3.205813,-8.575299 7.924914,-21.6 2.745985,-7.578922 3.304062,-9.106488 6.000624,-16.425 3.552493,-9.64152 3.866557,-10.504432 5.404788,-14.85 2.824227,-7.978554 3.209085,-8.789183 4.486392,-9.449704 l 1.229004,-0.635543 -1.919772,5.492624 C 71.602789,31.503319 66.087225,46.7325 60.401857,62.325 54.71649,77.9175 49.870669,91.2825 49.633366,92.025 l -0.43146,1.35 -4.575953,0.128241 C 40.339494,93.623373 40.05,93.575759 40.05,92.750643 Z M 11.952982,69.596933 C 6.2758719,63.338459 1.5514747,57.979422 1.4543212,57.687961 1.3312911,57.318871 1.7325344,57.238668 2.7763393,57.423708 4.4562357,57.721509 5.7532779,58.971132 15.220336,69.412748 23.153024,78.162044 23.326242,78.3 26.379011,78.3 c 2.91906,0 7.819481,1.339407 7.820365,2.1375 4.5e-4,0.422334 -1.485144,0.559507 -5.961876,0.550485 L 22.275,80.975974 11.952982,69.596933 Z m 68.695262,10.883335 c 0.276633,-0.829895 4.845443,-2.118033 7.627451,-2.1505 1.402884,-0.01638 2.85327,-0.145877 3.22308,-0.287784 0.369809,-0.141912 3.170745,-3.02265 6.224305,-6.401642 3.05356,-3.378991 6.75201,-7.420064 8.21879,-8.980164 1.46677,-1.560096 2.94231,-3.229803 3.27897,-3.710452 0.55963,-0.798984 4.02467,-2.104218 4.45191,-1.676975 0.22712,0.227124 -2.26968,3.085029 -12.76815,14.614749 L 92.607151,81 86.541075,81 C 82.15443,81 80.522964,80.856108 80.648244,80.480268 Z M 92.689798,48.071709 C 87.913247,42.79352 83.29153,37.719342 82.419318,36.79576 c -0.872213,-0.923581 -1.489207,-1.775869 -1.371105,-1.893973 0.118103,-0.118104 1.218695,0.255907 2.445759,0.831136 2.211066,1.036513 3.367494,2.151499 10.781028,10.394687 1.98,2.201584 4.559193,5.025397 5.73154,6.275137 2.48315,2.647076 2.94251,3.691062 2.02693,4.606641 -0.57871,0.578709 -1.71752,-0.510615 -9.343671,-8.937679 z m -79.87571,8.610638 c -0.514684,-0.83278 0.159228,-2.474497 1.688567,-4.113523 0.80979,-0.867865 3.396095,-3.674137 5.747345,-6.236158 8.58511,-9.354697 9.043501,-9.79055 11.332399,-10.775208 1.240244,-0.533538 2.329895,-0.895164 2.421447,-0.803611 0.20996,0.209959 -18.36345,20.423871 -19.816639,21.566947 -0.708161,0.557042 -1.176144,0.680265 -1.373119,0.361553 z"
       id="path4160"
       inkscape:connector-curvature="0" />
    <path
       style="fill:#5f95ae"
       d="m 40.05,92.984765 c 0,-0.886127 2.361253,-1.634765 5.156141,-1.634765 3.782074,0 1.590718,4.937319 18.674365,-42.075 C 68.107599,37.6425 71.876907,27.280326 72.256748,26.247946 72.85441,24.623536 74.25,22.75186 74.25,23.574724 74.25,24.151633 70.49947,34.648884 60.405043,62.325 54.717925,77.9175 49.87067,91.2825 49.633366,92.025 l -0.43146,1.35 -4.575953,0.128241 C 40.88788,93.608001 40.05,93.513069 40.05,92.984765 Z M 11.809028,69.441017 C 6.0527434,63.097277 1.4364381,57.813561 1.5505715,57.699427 2.3376852,56.912314 4.6005732,58.785552 9.7117709,64.455331 16.215128,71.669416 19.363575,75.109932 21.4425,77.274265 22.771255,78.657611 23.051137,78.75 25.912978,78.75 29.03809,78.75 34.2,79.908142 34.2,80.609301 c 0,0.214884 -2.683125,0.385092 -5.9625,0.378243 L 22.275,80.975088 11.809028,69.441017 Z M 80.55,80.609301 C 80.55,79.89511 85.737937,78.75 88.973573,78.75 l 3.189528,0 4.205952,-4.594513 c 2.31327,-2.526984 5.504477,-6.020109 7.091577,-7.7625 C 109.55322,59.704218 111.7344,57.6 112.5752,57.6 c 0.61909,0 0.76588,0.183276 0.50966,0.636359 -0.19792,0.350001 -4.88244,5.615 -10.41003,11.699999 L 92.624652,81 86.587326,81 C 83.266799,81 80.55,80.824185 80.55,80.609301 Z M 91.003892,46.26625 c -5.455233,-6.017688 -9.858434,-11.003737 -9.78489,-11.080111 0.07355,-0.07637 0.82057,0.148122 1.660054,0.49888 0.993015,0.414908 4.351243,3.742914 9.611136,9.52464 8.891258,9.773361 9.662098,10.76805 8.919918,11.510235 C 101.05997,57.07003 98.126244,54.12294 91.003892,46.26625 Z m -77.493481,9.446765 c 0.01366,-1.361835 15.874944,-18.626182 18.215758,-19.827092 0.912317,-0.468047 1.738756,-0.770999 1.836528,-0.673226 0.217121,0.217121 -18.052766,20.125238 -19.226326,20.950318 -0.743774,0.522918 -0.835219,0.473099 -0.82596,-0.45 z"
       id="path4158"
       inkscape:connector-curvature="0" />
    <path
       style="fill:#1694cf"
       d="m 40.05,92.969023 c 0,-0.871852 2.379531,-1.619023 5.156141,-1.619023 3.782074,0 1.590718,4.937319 18.674365,-42.075 C 68.107599,37.6425 71.876907,27.280326 72.256748,26.247946 72.85441,24.623536 74.25,22.75186 74.25,23.574724 74.25,24.167316 70.416378,34.874281 60.294933,62.55 54.547254,78.26625 49.646011,91.681875 49.403282,92.3625 48.962147,93.599474 48.960059,93.6 44.505979,93.6 40.983277,93.6 40.05,93.467844 40.05,92.969023 Z M 11.983556,69.422481 C 6.1653694,63.054846 1.4844716,57.765528 1.5815609,57.66844 2.3361941,56.913804 4.6679702,58.860315 9.7117709,64.455331 16.215128,71.669416 19.363575,75.109932 21.4425,77.274265 22.771255,78.657611 23.051137,78.75 25.912978,78.75 29.03809,78.75 34.2,79.908142 34.2,80.609301 34.2,80.824185 31.581467,81 28.381038,81 L 22.562076,81 11.983556,69.422481 Z M 80.55,80.609301 c 0,-0.7137 5.186952,-1.859301 8.418366,-1.859301 l 3.184321,0 2.861159,-3.094173 c 1.573632,-1.701796 5.696154,-6.23466 9.161154,-10.073034 3.465,-3.838374 6.73565,-7.228278 7.26813,-7.533117 2.97466,-1.703016 0.98354,0.974272 -8.46141,11.377341 L 92.475,80.999555 l -5.9625,2.2e-4 C 83.233125,80.999901 80.55,80.824185 80.55,80.609301 Z M 91.005683,46.110591 C 85.50396,40.054766 81.109728,35.1 81.240728,35.1 c 1.583325,0 4.153779,2.310012 11.249464,10.10966 8.749578,9.61762 9.654628,10.775519 8.963078,11.467075 -0.2926,0.292594 -3.862166,-3.317481 -10.447587,-10.566144 z m -77.495272,9.683487 c 0.01338,-1.438596 15.760122,-18.648338 18.215758,-19.908155 0.912317,-0.468047 1.722712,-0.785729 1.800876,-0.705959 0.14785,0.150887 -14.501639,16.179022 -18.018424,19.714114 -1.893882,1.903743 -2.008026,1.955156 -1.99821,0.9 z"
       id="path4156"
       inkscape:connector-curvature="0" />
    <path
       style="fill:#1585b9"
       d="M 40.05,93.165831 C 40.05,92.339069 41.802825,91.8 44.491122,91.8 c 3.816468,0 4.774441,-0.476235 5.594571,-2.781229 C 53.94937,78.159829 67.124102,42.533785 67.349902,42.334296 67.73247,41.996306 68.486796,39.872274 58.05301,68.5125 L 48.913497,93.6 l -4.431748,0 C 41.934991,93.6 40.05,93.415334 40.05,93.165831 Z M 12.180434,69.637559 C 3.1207705,59.721156 0.90590778,56.915757 3.2733718,58.355653 3.6073759,58.558793 7.378965,62.5725 11.654681,67.275 23.207371,79.980831 22.246236,79.2 26.333306,79.2 c 3.472376,0 7.232859,0.688491 7.675901,1.40535 C 34.144227,80.823816 31.643299,81 28.407162,81 L 22.561209,81 12.180434,69.637559 Z M 81,80.603419 c 0,-0.682951 3.849651,-1.403325 7.511769,-1.405656 2.992788,-0.0018 3.686013,-0.151892 4.679586,-1.0125 0.641498,-0.555646 5.067239,-5.313388 9.834985,-10.572763 4.76775,-5.259375 8.96107,-9.5625 9.3185,-9.5625 0.42131,0 0.52331,0.210757 0.29002,0.599238 -0.19792,0.32958 -4.81486,5.492785 -10.25986,11.473789 l -9.9,10.874552 -5.7375,0.0014 C 83.581875,80.999379 81,80.821678 81,80.603559 Z m 9.990963,-34.514806 c -5.259496,-5.796237 -9.304704,-10.537607 -8.989344,-10.536378 0.31536,0.0012 1.112432,0.456855 1.771267,1.0125 1.639405,1.382627 16.473994,17.75175 17.031274,18.793041 1.44635,2.70252 -1.327862,0.08211 -9.813197,-9.269163 z M 13.95,55.674333 c 0,-0.91269 15.797565,-18.260146 17.693655,-19.429572 0.69776,-0.430348 1.341349,-0.709757 1.430197,-0.620909 0.16082,0.160819 -13.318304,14.973945 -17.125363,18.820226 C 14.511765,55.895607 13.95,56.241423 13.95,55.674333 Z M 67.5,41.733728 c 0,-0.605707 3.282804,-9.350923 3.448121,-9.185607 0.09893,0.09893 -0.540617,2.170271 -1.421218,4.602975 C 68.070087,41.175615 67.5,42.464527 67.5,41.733728 Z M 72.285273,28.35 c 0.151794,-0.61875 0.552623,-1.7325 0.890721,-2.475 0.493713,-1.084236 0.560398,-1.12853 0.338733,-0.225 -0.151794,0.61875 -0.552623,1.7325 -0.890721,2.475 -0.493713,1.084236 -0.560398,1.12853 -0.338733,0.225 z"
       id="path4154"
       inkscape:connector-curvature="0" />
    <path
       style="fill:#1278a8"
       d="m 40.05,93.198145 c 0,-0.221022 0.354375,-0.546903 0.7875,-0.72418 C 41.942799,92.021567 49.5,91.49287 49.5,91.867941 49.5,93.397941 48.916921,93.6 44.501855,93.6 42.053335,93.6 40.05,93.419163 40.05,93.198145 Z M 12.198392,69.657215 C 6.4988428,63.41868 1.9091013,58.240899 1.998967,58.151034 c 0.3967754,-0.396778 2.2138371,1.34901 7.8043433,7.498206 3.2880707,3.616668 7.4495487,8.176455 9.2477297,10.132862 l 3.269419,3.557106 5.26185,0.287473 C 30.719847,79.7981 33.063347,80.133345 33.38708,80.45708 33.810973,80.880975 32.683787,81 28.245605,81 L 22.561209,81 12.198392,69.657215 Z m 69.145219,10.819174 c 0.298688,-0.298687 2.726973,-0.643991 5.652846,-0.803844 3.397572,-0.185625 5.437958,-0.502601 6.043685,-0.938889 0.502942,-0.362259 4.885911,-5.041845 9.739918,-10.399072 4.85401,-5.357232 9.13626,-9.85968 9.51612,-10.005444 1.16003,-0.445145 0.41834,0.436558 -9.92118,11.793888 l -9.9,10.874551 -5.8275,0.0014 c -4.431172,9e-4 -5.702035,-0.124254 -5.303889,-0.5224 z M 91.070118,46.22287 c -4.980186,-5.498829 -8.994748,-10.067057 -8.92125,-10.151619 0.393462,-0.452696 2.388249,1.531034 10.130756,10.074602 7.957266,8.780553 9.049336,10.127074 8.182876,10.089517 -0.18562,-0.0081 -4.412196,-4.513671 -9.392382,-10.0125 z M 14.4,55.351615 c 0,-0.719973 16.643434,-18.614691 17.943596,-19.292629 1.057596,-0.551459 1.012579,-0.433562 -0.42957,1.125 C 31.02799,38.141543 26.802955,42.721875 22.52506,47.3625 18.247164,52.003125 14.668978,55.8 14.573534,55.8 14.47809,55.8 14.4,55.598229 14.4,55.351615 Z"
       id="path4152"
       inkscape:connector-curvature="0" />
    <path
       style="fill:#106891"
       d="M 40.5,93.198145 C 40.5,92.492289 41.828214,92.25 45.69768,92.25 c 3.169854,0 3.732606,0.108068 3.515053,0.675 C 49.00793,93.458709 48.068937,93.6 44.726855,93.6 42.402085,93.6 40.5,93.419163 40.5,93.198145 Z M 13.857683,71.4375 C 3.198002,59.781272 1.8279735,58.219834 2.7306786,58.75592 3.1188018,58.986414 6.5780082,62.6175 10.417804,66.825 14.2576,71.0325 18.423419,75.58875 19.67518,76.95 l 2.27593,2.475 5.228736,0.251793 c 3.116895,0.150093 5.445104,0.468157 5.764445,0.7875 C 33.35857,80.878568 32.247202,81 28.041319,81 l -5.43868,0 -8.744956,-9.5625 z M 82.575,80.308751 c 0.810675,-0.371206 2.96798,-0.627211 5.4,-0.640823 3.067546,-0.01719 4.339764,-0.213125 5.244498,-0.807795 0.656973,-0.431825 5.183136,-5.189508 10.058142,-10.572633 8.04201,-8.880237 10.44362,-11.339847 8.71475,-8.925228 -0.33956,0.47425 -4.86989,5.533389 -10.06739,11.242539 l -9.45,10.380262 -5.625,-0.02907 c -5.137835,-0.02655 -5.508081,-0.08262 -4.275,-0.647239 z M 95.322474,50.7375 C 85.272597,39.841452 82.267033,36.45 82.66064,36.45 c 0.351567,0 12.990514,13.670663 16.550919,17.901963 2.644781,3.143137 0.536427,1.183662 -3.889085,-3.614463 z M 14.85,55.100129 C 14.85,54.687564 31.543285,36.708413 32.339051,36.263914 32.743823,36.037817 32.16375,36.848322 31.05,38.065037 21.142282,48.888711 15.147055,55.35 15.011827,55.35 14.922822,55.35 14.85,55.237558 14.85,55.100129 Z"
       id="path4150"
       inkscape:connector-curvature="0" />
    <path
       style="fill:#144e69"
       d="m 41.4,93.15 c 0,-0.264951 1.583852,-0.45 3.851559,-0.45 2.453112,0 3.750579,0.163386 3.573441,0.45 -0.152964,0.2475 -1.886166,0.45 -3.851558,0.45 C 42.891147,93.6 41.4,93.412219 41.4,93.15 Z M 22.141797,80.4375 c -0.371127,-0.44568 0.57534,-0.533407 4.5574,-0.422419 C 33.418327,80.202362 34.143877,81 27.5951,81 24.156995,81 22.464856,80.825459 22.141797,80.4375 Z m 60.37869,0.240061 c 0.543627,-0.546659 10.659775,-0.886936 10.481337,-0.352561 -0.08561,0.256378 -2.448279,0.504886 -5.491102,0.577562 -2.937461,0.07015 -5.183069,-0.0311 -4.990235,-0.225001 z"
       id="path4148"
       inkscape:connector-curvature="0" />
  </g>
</svg>
